<?xml version="1.0" encoding="utf-8"?>
<!-- Generator: Adobe Illustrator 14.0.0, SVG Export Plug-In . SVG Version: 6.00 Build 43363)  -->
<svg version="1.2" baseProfile="tiny" id="svg2" xmlns:svg="http://www.w3.org/2000/svg"
 xmlns="http://www.w3.org/2000/svg" xmlns:xlink="http://www.w3.org/1999/xlink" x="0px" y="0px" width="950px" height="620px"
 viewBox="0 0 950 620" xml:space="preserve">
<path id="kalimantan" d="M781.68,324.4l-2.31,8.68l-12.53,4.23l-3.75-4.4l-1.82,0.5l3.4,13.12l5.09,0.57l6.79,2.57v2.57l3.11-0.57l4.53-6.27v-5.13l2.55-5.13l2.83,0.57l-3.4-7.13l-0.52-4.59L781.68,324.4L781.68,324.4z"/>
<path id="papua new guinea" d="M852.76,348.29l-0.37,24.44l3.52-0.19l4.63-5.41l3.89,0.19l2.5,2.24l0.83,6.9l7.96,4.2l2.04-0.75v-2.52l-6.39-5.32l-3.15-7.28l2.5-1.21l-1.85-4.01l-3.7-0.09l-0.93-4.29l-9.81-6.62L852.76,348.29L852.76,348.29z"/>
<path id="equatorial guinea" d="M480.99,332.69l-0.06,1.39l4.54,0.23l-0.06-1.57L480.99,332.69L480.99,332.69z"/>

<path id="australia" d="M761.17,427.98l-0.35,25.38l-3.9,2.86l-0.35,2.5l5.32,3.57l13.13-2.5h6.74l2.48-3.58l14.9-2.86l10.64,3.22l-0.71,4.29l1.42,4.29l8.16-1.43l0.35,2.14l-5.32,3.93l1.77,1.43l3.9-1.43l-1.06,11.8l7.45,5.72l4.26-1.43l2.13,2.14l12.42-1.79l11.71-18.95l4.26-1.07l8.51-15.73l2.13-13.58l-5.32-6.79l2.13-1.43l-4.26-13.23l-4.61-3.22l0.71-17.87l-4.26-3.22l-1.06-10.01h-2.13l-7.1,23.59l-3.9,0.36l-8.87-8.94l4.97-13.23l-9.22-1.79l-10.29,2.86l-2.84,8.22l-4.61,1.07l-0.35-5.72l-18.8,11.44l0.35,4.29l-2.84,3.93h-7.1l-15.26,6.43L761.17,427.98L761.17,427.98z"/>
<path id="tasmania" d="M825.74,496.26l-1.77,7.15l0.35,5l5.32-0.36l6.03-9.29L825.74,496.26L825.74,496.26z"/>
<path id="new zealand north island" d="M913.02,481.96l1.06,11.8l-1.42,5.36l-5.32,3.93l0.35,4.65v5l1.42,1.79l14.55-12.51v-2.86h-3.55l-4.97-16.8L913.02,481.96L913.02,481.96z"/>
<path id="new zealand south island" d="M902.38,507.7l2.84,5.36l-7.81,7.51l-0.71,3.93l-5.32,0.71l-8.87,8.22l-8.16-3.93l-0.71-2.86l14.9-6.43L902.38,507.7L902.38,507.7z"/>
<path id="new caledonia" d="M906.64,420.47l-0.35,1.79l4.61,6.43l2.48,1.07l0.35-2.5L906.64,420.47L906.64,420.47z"/>
<path id="sumatra" d="M722.48,317.57l-0.28,2.28l6.79,11.41h1.98l14.15,23.67l5.66,0.57l2.83-8.27l-4.53-2.85l-0.85-4.56L722.48,317.57L722.48,317.57z"/>
<path id="east malaysia" d="M764.14,332.92l3.02,3.49l11.58-4.01l2.29-8.84l5.16-0.37l4.72-3.42l-6.12-4.46l-1.4-2.45l-3.02,5.57l1.11,3.2l-1.84,2.67l-3.47-0.89l-8.41,6.17l0.22,3.57L764.14,332.92L764.14,332.92z"/>
<path id="brunei" d="M779.77,319.25l-2.88,3.49l2.36,0.74l1.33-1.86L779.77,319.25L779.77,319.25z"/>
<path id="sulawesi" d="M789.53,349.11l2.26,2.77l-1.47,4.16v0.79h3.34l1.18-10.4l1.08,0.3l1.96,9.5l1.87,0.5l1.77-4.06l-1.77-6.14l-1.47-2.67l4.62-3.37l-1.08-1.49l-4.42,2.87h-1.18l-2.16-3.17l0.69-1.39l3.64-1.78l5.5,1.68l1.67-0.1l4.13-3.86l-1.67-1.68l-3.83,2.97h-2.46l-3.73-1.78l-2.65,0.1l-2.95,4.75l-1.87,8.22L789.53,349.11L789.53,349.11z"/>
<path id="maluku" d="M814.19,330.5l-1.87,4.55l2.95,3.86h0.98l1.28-2.57l0.69-0.89l-1.28-1.39l-1.87-0.69L814.19,330.5L814.19,330.5z"/>
<path id="seram" d="M819.99,345.45l-4.03,0.89l-1.18,1.29l0.98,1.68l2.65-0.99l1.67-0.99l2.46,1.98l1.08-0.89l-1.96-2.38L819.99,345.45L819.99,345.45z"/>
<path id="java" d="M753.17,358.32l-2.75,1.88l0.59,1.58l8.75,1.98l4.42,0.79l1.87,1.98l5.01,0.4l2.36,1.98l2.16-0.5l1.97-1.78l-3.64-1.68l-3.14-2.67l-8.16-1.98L753.17,358.32L753.17,358.32z"/>
<path id="bali" d="M781.77,366.93l-2.16,1.19l1.28,1.39l3.14-1.19L781.77,366.93L781.77,366.93z"/>
<path id="lombok" d="M785.5,366.04l0.39,1.88l2.26,0.59l0.88-1.09l-0.98-1.49L785.5,366.04L785.5,366.04z"/>
<path id="sumba" d="M790.91,370.99l-2.75,0.4l2.46,2.08h1.96L790.91,370.99L790.91,370.99z"/>
<path id="flores" d="M791.69,367.72l-0.59,1.19l4.42,0.69l3.44-1.98l-1.96-0.59l-3.14,0.89l-1.18-0.99L791.69,367.72L791.69,367.72z"/>
<path id="timor" d="M806.14,368.42l-5.11,4.26l0.49,1.09l2.16-0.4l2.55-2.38l5.01-0.69l-0.98-1.68L806.14,368.42L806.14,368.42z"/>
<path id="new ireland" d="M880.48,349l-0.88,1.25l4.81,4.26l0.66,2.5l1.31-0.15l0.15-2.57l-1.46-1.32L880.48,349L880.48,349z"/>
<path id="new britain" d="M882.89,355.03l-0.95,0.22l-0.58,2.57l-1.82,1.18l-5.47,0.96l0.22,2.06l5.76-0.29l3.65-2.28l-0.22-3.97L882.89,355.03L882.89,355.03z"/>
<path id="bougainville" d="M889.38,359.51l1.24,3.45l2.19,2.13l0.66-0.59l-0.22-2.28l-2.48-3.01L889.38,359.51L889.38,359.51z"/>
<path id="choiseul" d="M895.43,364.65l0.15,2.28l1.39,1.32l1.31-0.81l-1.17-2.43L895.43,364.65L895.43,364.65z"/>
<path id="new georgia" d="M897.18,370.31l-1.17,1.25l1.24,2.28l1.46,0.44l-0.07-1.54L897.18,370.31L897.18,370.31z"/>
<path id="santa isabel" d="M900.03,368.99l1.02,2.5l1.97,2.35l1.09-1.76l-1.46-2.5L900.03,368.99L900.03,368.99z"/>
<path id="malaita" d="M905.14,372.74l0.58,3.09l1.39,1.91l1.17-2.42L905.14,372.74L905.14,372.74z"/>
<path id="santa ana" d="M906.74,379.65l-0.51,0.88l1.68,2.21l1.17,0.07l-0.73-2.87L906.74,379.65L906.74,379.65z"/>
<path id="rennell" d="M903.02,384.05l-1.75,0.81l1.53,2.13l1.31-0.74L903.02,384.05L903.02,384.05z"/>
<path id="espiritu santo" d="M920.87,397.22l-1.24,1.66l0.52,1.87l0.62,0.42l1.13-1.46L920.87,397.22L920.87,397.22z"/>
<path id="malakula" d="M921.49,402.31l0.1,1.35l1.34,0.42l0.93-0.52l-0.93-1.46L921.49,402.31L921.49,402.31z"/>
<path id="efate" d="M923.45,414.37l-0.62,0.94l0.93,1.04l1.55-0.52L923.45,414.37L923.45,414.37z"/>
<path id="fiji" d="M948.62,412.29l-1.24,1.66l-0.1,1.87l1.44,1.46L948.62,412.29L948.62,412.29z"/>
<path id="palawan" d="M789.37,297.53l-0.86,1.64l-0.48,2.02l-4.78,6.07l0.29,1.25l2.01-0.29l6.21-6.94L789.37,297.53L789.37,297.53z"/>
<path id="negros" d="M797.11,295.22l-0.1,5.01l1.82,1.83l0.67,3.56l1.82,0.39l0.86-2.22l-1.43-1.06l-0.38-6.26L797.11,295.22L797.11,295.22z"/>
<path id="cebu" d="M802.28,297.15l-0.1,4.43l1.05,1.73l1.82-2.12l-0.48-3.85L802.28,297.15L802.28,297.15z"/>
<path id="samar" d="M803.42,293.29l1.82,2.41l0.86,2.31h1.63l-0.29-3.95l-1.82-1.25L803.42,293.29L803.42,293.29z"/>
<path id="path7462" d="M806.96,302.35l0.38,2.89l-3.35,2.7l-2.77,0.29l-2.96,3.18l0.1,1.45l2.77-0.87l1.91-1.25l1.63,4.14l2.87,2.02l1.15-0.39l1.05-1.25l-2.29-2.31l1.34-1.06l1.53,1.25l1.05-1.73l-1.05-2.12l-0.19-4.72L806.96,302.35L806.96,302.35z"/>
<path id="luzon" d="M791.38,272.97l-2.58,1.83l-0.29,5.78l4.02,7.8l1.34,1.06l1.72-1.16l2.96,0.48l0.57,2.6l2.2,0.19l1.05-1.44l-1.34-1.83l-1.63-1.54l-3.44-0.38l-1.82-2.99l2.1-3.18l0.19-2.79l-1.43-3.56L791.38,272.97L791.38,272.97z"/>
<path id="mindoro" d="M792.72,290.21l0.76,2.7l1.34,0.87l0.96-1.25l-1.53-2.12L792.72,290.21L792.72,290.21z"/>
<path id="hainan" d="M759.83,270.17l-2.39,0.67l-1.72,2.12l1.43,2.79l2.1,0.19l2.39-2.12l0.57-2.79L759.83,270.17L759.83,270.17z"/>
<path id="taiwan" d="M787.46,248.31l-3.54,2.7l-0.19,5.2l3.06,3.56l0.76-0.67L787.46,248.31L787.46,248.31z"/>
<path id="kyushu" d="M803.23,216.42l-1.63,1.64l0.67,2.31l1.43,0.1l0.96,5.01l1.15,1.25l2.01-1.83l0.86-3.28l-2.49-3.56L803.23,216.42L803.23,216.42z"/>
<path id="shikoku" d="M812.03,213.15l-2.77,2.6l-0.1,2.99l0.67,0.87l3.73-3.18l-0.29-3.18L812.03,213.15L812.03,213.15z"/>
<path id="honshu" d="M808.2,206.98l-4.88,5.59l0.86,1.35l2.39,0.29l4.49-3.47l3.16-0.58l2.87,3.37l2.2-0.77l0.86-3.28l4.11-0.1l4.02-4.82l-2.1-8l-0.96-4.24l2.1-1.73l-4.78-7.22l-1.24,0.1l-2.58,2.89v2.41l1.15,1.35l0.38,6.36l-2.96,3.66l-1.72-1.06l-1.34,2.99l-0.29,2.79l1.05,1.64l-0.67,1.25l-2.2-1.83h-1.53l-1.34,0.77L808.2,206.98L808.2,206.98z"/>
<path id="hokkaido" d="M816.43,163.44l-1.53,1.35l0.77,2.89l1.34,1.35l-0.1,4.43l-1.72,0.67l-1.34,2.99l3.92,5.39l2.58-0.87l0.48-1.35l-2.77-2.5l1.72-2.22l1.82,0.29l1.43,1.54l0.1-3.18l3.92-3.18l2.2-0.58l-1.82-3.08l-0.86-1.35l-1.43,0.96l-1.24,1.54l-2.68-0.58l-2.77-1.83L816.43,163.44L816.43,163.44z"/>
<path id="iturup" d="M830.86,160.45l-2.68,3.76l0.19,1.83l1.34-0.58l3.15-3.95L830.86,160.45L830.86,160.45z"/>
<path id="urup" d="M834.4,154.96l-0.96,2.6l0.1,1.73l1.63-1.06l1.53-3.08V154L834.4,154.96L834.4,154.96z"/>
<path id="paramushir" d="M840.04,132.03l-1.24,1.54l0.1,2.41l1.15-0.1l1.91-3.37L840.04,132.03L840.04,132.03z"/>
<path id="onekotan" d="M837.75,137.91v4.24l1.34,0.48l0.96-1.54v-3.27L837.75,137.91L837.75,137.91z"/>
<path id="sakhalin" d="M798.64,122.59l-0.09,6.17l7.74,11.95l2.77,10.4l4.88,9.25l1.91,0.67l1.63-1.35l0.76-2.22l-6.98-7.61l0.19-3.95l1.53-0.67l0.38-2.31l-13.67-19.36L798.64,122.59L798.64,122.59z"/>
<path id="bering island" d="M852.57,103.42l-1.91,0.19l1.15,1.64l2.39,1.64l0.67-0.77L852.57,103.42L852.57,103.42z"/>
<path id="medny" d="M856.29,104.58l0.29,1.64l2.96,0.87l0.29-1.16L856.29,104.58L856.29,104.58z"/>
<path id="attu" d="M872.54,110.87l1.25,2.24l2.08-0.14l0.42-1.54L872.54,110.87L872.54,110.87z"/>
<path id="amchitka" d="M893.51,114.37l1.67,3.08l1.25-1.4v-2.1L893.51,114.37L893.51,114.37z"/>
<path id="adak" d="M907.81,104.57l-2.36,3.08l0.55,1.4l2.92-1.82l0.28-1.82L907.81,104.57L907.81,104.57z"/>
<path id="umnak" d="M919.61,94.92l-2.08,2.52l2.22,0.84L919.61,94.92L919.61,94.92z"/>
<path id="unalaska" d="M922.53,90.72l-1.39,2.24l0.14,2.24l1.94-0.84L922.53,90.72L922.53,90.72z"/>

<path id="china" d="M670.4,170.07l-3.46,8.7l-4.77-0.25l-5.03,11.01l4.27,5.44l-8.8,12.15l-4.52-0.76l-3.02,3.8l0.75,2.28l3.52,0.25l1.76,4.05l3.52,0.76l10.81,13.93v7.09l5.28,3.29l5.78-1.01l7.29,4.3l8.8,2.53l4.27-0.51l4.78-0.51l10.05-6.58l3.27,0.51l1.25,2.97l2.77,0.83l3.77,5.57l-2.51,5.57l1.51,3.8l4.27,1.52l0.75,4.56l5.03,0.51l0.75-2.28l7.29-3.8l4.52,0.25l5.28,5.82l3.52-1.52l2.26,0.25l1.01,2.79l1.76,0.25l2.51-3.54l10.05-3.8l9.05-10.89l3.02-10.38l-0.25-6.84l-3.77-0.76l2.26-2.53l-0.5-4.05l-9.55-9.62v-4.81l2.76-3.54l2.76-1.27l0.25-2.79h-7.04l-1.26,3.8l-3.27-0.76l-4.02-4.3l2.51-6.58l3.52-3.8l3.27,0.25l-0.5,5.82l1.76,1.52l4.27-4.3l1.51-0.25l-0.5-3.29l4.02-4.81l3.02,0.25l1.76-5.57l2.06-1.09l0.21-3.47l-2-2.1l-0.17-5.48l3.85-0.25l-0.25-14.13l-2.7,1.62l-1.01,3.62l-4.51-0.01l-13.07-7.35l-9.44-11.38l-9.58-0.1l-2.44,2.12l3.1,7.1l-1.08,6.66l-3.86,1.6l-2.17-0.17l-0.16,6.59l2.26,0.51l4.02-1.77l5.28,2.53v2.53l-3.77,0.25l-3.02,6.58l-2.76,0.25l-9.8,12.91l-10.3,4.56l-7.04,0.51l-4.77-3.29l-6.79,3.55l-7.29-2.28l-1.76-4.81l-12.31-0.76l-6.53-10.63h-2.76l-2.22-4.93L670.4,170.07z"/>

<path id="burma" d="M729.44,303.65l-2.77-4.44l2.01-2.82l-1.9-3.49l-1.79-0.34l-0.34-5.86l-2.68-5.19l-0.78,1.24l-1.79,3.04l-2.24,0.34l-1.12-1.47l-0.56-3.95l-1.68-3.16l-6.84-6.45l1.68-1.11l0.31-4.67l2.5-4.2l1.08-10.45l3.62-2.47l0.12-3.81l2.17,0.72l3.42,4.95l-2.54,5.44l1.71,4.27l4.23,1.66l0.77,4.65l5.68,0.88l-1.57,2.71l-7.16,2.82l-0.78,4.62l5.26,6.76l0.22,3.61l-1.23,1.24l0.11,1.13l3.92,5.75l0.11,5.97L729.44,303.65L729.44,303.65z"/>
<path id="thailand" d="M730.03,270.47l3.24,4.17v5.07l1.12,0.56l5.15-2.48l1.01,0.34l6.15,7.1l-0.22,4.85l-2.01-0.34l-1.79-1.13l-1.34,0.11l-2.35,3.94l0.45,2.14l1.9,1.01l-0.11,2.37l-1.34,0.68l-4.59-3.16v-2.82l-1.9-0.11l-0.78,1.24l-0.4,12.62l2.97,5.42l5.26,5.07l-0.22,1.47l-2.8-0.11l-2.57-3.83h-2.69l-3.36-2.71l-1.01-2.82l1.45-2.37l0.5-2.14l1.58-2.8l-0.07-6.44l-3.86-5.58l-0.16-0.68l1.25-1.26l-0.29-4.43l-5.14-6.51l0.6-3.75L730.03,270.47L730.03,270.47z"/>
<path id="malaysia" d="M732.71,315.45l2.01,4.51l0.45,5.86l2.69,4.17l6.49,3.94l2.46,0.23l-0.45-4.06l-2.13-5.18l-3.12-6.63l-0.26,1.16l-3.76-0.17l-2.7-3.88L732.71,315.45L732.71,315.45z"/>
<path id="cambodia" d="M740.48,299.47l4.09,4.37l7.61-5.64l0.67-8.9l-3.93,2.71l-2.04-1.14l-2.77-0.37l-1.55-1.09l-0.75,0.04l-2.03,3.33l0.33,1.54l2.06,1.15l-0.25,3.13L740.48,299.47L740.48,299.47z"/>
<path id="laos" d="M735.47,262.93l-2.42,1.23l-2.01,5.86l3.36,4.28l-0.56,4.73l0.56,0.23l5.59-2.71l7.5,8.38l-0.18,5.28l1.63,0.88l4.03-3.27l-0.33-2.59l-11.63-11.05l0.11-1.69l1.45-1.01l-1.01-2.82l-4.81-0.79L735.47,262.93L735.47,262.93z"/>
<path id="vietnam" d="M745.06,304.45l1.19,1.87l0.22,2.14l3.13,0.34l3.8-5.07l3.58-1.01l1.9-5.18l-0.89-8.34l-3.69-5.07l-3.89-3.11l-4.95-8.5l3.55-5.94l-5.08-5.83l-4.07-0.18l-3.66,1.97l1.09,4.71l4.88,0.86l1.31,3.63l-1.72,1.12l0.11,0.9l11.45,11.2l0.45,3.29l-0.69,10.4L745.06,304.45L745.06,304.45z"/>
</svg>