<?xml version="1.0" encoding="utf-8"?>
<!-- Generator: Adobe Illustrator 15.0.0, SVG Export Plug-In . SVG Version: 6.00 Build 0)  -->
<!DOCTYPE svg PUBLIC "-//W3C//DTD SVG 1.1//EN" "http://www.w3.org/Graphics/SVG/1.1/DTD/svg11.dtd">
<svg version="1.1" id="Layer_1" xmlns="http://www.w3.org/2000/svg" xmlns:xlink="http://www.w3.org/1999/xlink" x="0px" y="0px"
	 width="420px" height="420px" viewBox="0 0 420 420" enable-background="new 0 0 420 420" xml:space="preserve">
<path id="kalimantan" fill="#010101" d="M210.18,205.9l-2.311,8.68l-12.529,4.229l-3.75-4.399l-1.82,0.5l3.4,13.12l5.09,0.569
	l6.79,2.57v2.57l3.109-0.57l4.53-6.27v-5.131l2.55-5.13l2.83,0.57l-3.399-7.13l-0.521-4.59L210.18,205.9L210.18,205.9z"/>
<path id="papua_new_guinea" fill="#010101" d="M281.26,229.79l-0.37,24.44l3.52-0.19l4.63-5.41l3.891,0.19l2.5,2.239l0.83,6.9
	l7.96,4.2l2.04-0.75v-2.521l-6.391-5.319l-3.149-7.28l2.5-1.21l-1.851-4.01l-3.699-0.09l-0.931-4.29l-9.81-6.62L281.26,229.79
	L281.26,229.79z"/>
<path id="australia" fill="#010101" d="M189.67,309.48l-0.351,25.38l-3.899,2.859l-0.351,2.5l5.32,3.57l13.13-2.5h6.74l2.479-3.58
	l14.9-2.86l10.64,3.221l-0.71,4.29l1.42,4.29l8.16-1.431l0.35,2.141l-5.319,3.93l1.77,1.43l3.9-1.43l-1.061,11.8l7.45,5.721
	l4.261-1.431l2.13,2.141l12.42-1.79l11.71-18.95l4.26-1.07l8.51-15.729l2.13-13.58l-5.319-6.79l2.13-1.431l-4.261-13.229
	l-4.609-3.22l0.71-17.87l-4.26-3.221l-1.061-10.01h-2.13l-7.1,23.59l-3.9,0.36l-8.87-8.94l4.971-13.229l-9.221-1.79l-10.29,2.86
	l-2.84,8.22L239,274.77l-0.351-5.72l-18.8,11.44l0.35,4.29l-2.84,3.93h-7.1L195,295.14L189.67,309.48L189.67,309.48z"/>
<path id="tasmania" fill="#010101" d="M254.239,377.76l-1.77,7.15l0.35,5l5.32-0.36l6.03-9.29L254.239,377.76L254.239,377.76z"/>
<path id="new_zealand_north_island" fill="#010101" d="M341.52,363.46l1.061,11.8l-1.421,5.36l-5.319,3.93l0.35,4.65v5l1.42,1.79
	l14.55-12.511v-2.859h-3.55l-4.97-16.8L341.52,363.46L341.52,363.46z"/>
<path id="new_zealand_south_island" fill="#010101" d="M330.88,389.2l2.84,5.359l-7.811,7.511l-0.71,3.93l-5.319,0.71l-8.87,8.22
	l-8.16-3.93l-0.71-2.86l14.899-6.43L330.88,389.2L330.88,389.2z"/>
<path id="new_caledonia" fill="#010101" d="M335.14,301.97l-0.351,1.79l4.61,6.431l2.48,1.069l0.35-2.5L335.14,301.97L335.14,301.97
	z"/>
<path id="sumatra" fill="#010101" d="M150.979,199.07l-0.28,2.279l6.79,11.41h1.98l14.149,23.67l5.66,0.57l2.83-8.27l-4.53-2.851
	l-0.85-4.56L150.979,199.07L150.979,199.07z"/>
<path id="east_malaysia" fill="#010101" d="M192.64,214.42l3.02,3.49l11.58-4.01l2.29-8.841l5.16-0.369l4.72-3.421l-6.12-4.46
	l-1.399-2.449l-3.021,5.569l1.11,3.2l-1.84,2.67l-3.47-0.89l-8.41,6.17l0.22,3.57L192.64,214.42L192.64,214.42z"/>
<path id="brunei" fill="#010101" d="M208.27,200.75l-2.88,3.49l2.36,0.74l1.329-1.86L208.27,200.75L208.27,200.75z"/>
<path id="sulawesi" fill="#010101" d="M218.029,230.61l2.26,2.77l-1.47,4.16v0.79h3.34l1.181-10.4l1.08,0.301l1.96,9.5l1.87,0.5
	l1.77-4.061l-1.77-6.14l-1.471-2.67l4.62-3.37l-1.08-1.49l-4.42,2.87h-1.18l-2.16-3.17l0.69-1.391l3.64-1.779l5.5,1.68l1.67-0.1
	l4.13-3.86l-1.67-1.68l-3.83,2.97h-2.46l-3.729-1.78l-2.65,0.101l-2.95,4.75l-1.87,8.22L218.029,230.61L218.029,230.61z"/>
<path id="maluku" fill="#010101" d="M242.689,212l-1.87,4.55l2.95,3.86h0.98l1.279-2.57l0.69-0.89l-1.28-1.391l-1.87-0.689
	L242.689,212L242.689,212z"/>
<path id="seram" fill="#010101" d="M248.489,226.95l-4.03,0.89l-1.18,1.29l0.98,1.68l2.649-0.989l1.67-0.99l2.46,1.98l1.08-0.891
	l-1.96-2.38L248.489,226.95L248.489,226.95z"/>
<path id="java" fill="#010101" d="M181.67,239.82l-2.75,1.88l0.59,1.58l8.75,1.979l4.42,0.79l1.87,1.98l5.01,0.399l2.36,1.98
	l2.159-0.5l1.971-1.78l-3.641-1.68l-3.14-2.67l-8.16-1.98L181.67,239.82L181.67,239.82z"/>
<path id="bali" fill="#010101" d="M210.27,248.43l-2.16,1.19l1.28,1.39l3.14-1.189L210.27,248.43L210.27,248.43z"/>
<path id="lombok" fill="#010101" d="M214,247.54l0.39,1.88l2.26,0.59l0.88-1.09l-0.979-1.49L214,247.54L214,247.54z"/>
<path id="sumba" fill="#010101" d="M219.409,252.49l-2.75,0.399l2.46,2.08h1.96L219.409,252.49L219.409,252.49z"/>
<path id="flores" fill="#010101" d="M220.189,249.22l-0.59,1.19l4.42,0.689l3.439-1.979l-1.96-0.59l-3.14,0.89l-1.18-0.99
	L220.189,249.22L220.189,249.22z"/>
<path id="timor" fill="#010101" d="M234.64,249.92l-5.11,4.26l0.49,1.09l2.16-0.399l2.55-2.38l5.01-0.69l-0.979-1.68L234.64,249.92
	L234.64,249.92z"/>
<path id="new_ireland" fill="#010101" d="M308.979,230.5l-0.88,1.25l4.81,4.26l0.66,2.5l1.31-0.149l0.15-2.57l-1.46-1.32
	L308.979,230.5L308.979,230.5z"/>
<path id="new_britain" fill="#010101" d="M311.39,236.53l-0.95,0.22l-0.58,2.57l-1.82,1.18l-5.47,0.96l0.22,2.06l5.761-0.289
	l3.649-2.28l-0.22-3.97L311.39,236.53L311.39,236.53z"/>
<path id="bougainville" fill="#010101" d="M317.88,241.01l1.239,3.45l2.19,2.13l0.66-0.59l-0.22-2.28l-2.48-3.01L317.88,241.01
	L317.88,241.01z"/>
<path id="choiseul" fill="#010101" d="M323.93,246.15l0.15,2.279l1.39,1.32l1.31-0.81l-1.17-2.431L323.93,246.15L323.93,246.15z"/>
<path id="new_georgia" fill="#010101" d="M325.68,251.81l-1.17,1.25l1.24,2.28l1.459,0.44l-0.069-1.54L325.68,251.81L325.68,251.81z
	"/>
<path id="santa_isabel" fill="#010101" d="M328.529,250.49l1.021,2.5l1.97,2.35l1.09-1.76l-1.46-2.5L328.529,250.49L328.529,250.49z
	"/>
<path id="malaita" fill="#010101" d="M333.64,254.24l0.58,3.09l1.39,1.91l1.17-2.42L333.64,254.24L333.64,254.24z"/>
<path id="santa_ana" fill="#010101" d="M335.239,261.15l-0.51,0.88l1.68,2.21l1.17,0.069l-0.729-2.869L335.239,261.15
	L335.239,261.15z"/>
<path id="rennell" fill="#010101" d="M331.52,265.55l-1.75,0.811l1.53,2.13l1.31-0.74L331.52,265.55L331.52,265.55z"/>
<path id="espiritu_santo" fill="#010101" d="M349.369,278.72l-1.239,1.66l0.52,1.87l0.62,0.42l1.13-1.46L349.369,278.72
	L349.369,278.72z"/>
<path id="malakula" fill="#010101" d="M349.989,283.81l0.101,1.351l1.34,0.42l0.93-0.521l-0.93-1.46L349.989,283.81L349.989,283.81z
	"/>
<path id="efate" fill="#010101" d="M351.949,295.87l-0.619,0.939l0.93,1.04l1.55-0.52L351.949,295.87L351.949,295.87z"/>
<path id="fiji" fill="#010101" d="M377.119,293.79l-1.239,1.66l-0.101,1.87l1.44,1.46L377.119,293.79L377.119,293.79z"/>
<path id="palawan" fill="#010101" d="M217.869,179.03l-0.859,1.64l-0.48,2.021l-4.779,6.069l0.289,1.25l2.011-0.29l6.21-6.939
	L217.869,179.03L217.869,179.03z"/>
<path id="negros" fill="#010101" d="M225.609,176.72l-0.1,5.01l1.819,1.829L228,187.12l1.819,0.39l0.86-2.22l-1.43-1.06l-0.381-6.26
	L225.609,176.72L225.609,176.72z"/>
<path id="cebu" fill="#010101" d="M230.779,178.65l-0.1,4.43l1.05,1.729l1.82-2.119l-0.48-3.851L230.779,178.65L230.779,178.65z"/>
<path id="samar" fill="#010101" d="M231.92,174.79l1.819,2.41l0.86,2.31h1.63l-0.29-3.95l-1.82-1.25L231.92,174.79L231.92,174.79z"
	/>
<path id="path7462" fill="#010101" d="M235.46,183.85l0.38,2.891l-3.351,2.7l-2.77,0.29l-2.96,3.18l0.1,1.45l2.771-0.87l1.909-1.25
	l1.631,4.14l2.869,2.021l1.15-0.391l1.05-1.25l-2.29-2.31l1.34-1.061l1.53,1.25l1.05-1.729l-1.05-2.12l-0.189-4.72L235.46,183.85
	L235.46,183.85z"/>
<path id="luzon" fill="#010101" d="M219.88,154.47l-2.58,1.83l-0.29,5.78l4.02,7.8l1.34,1.06l1.721-1.16l2.96,0.48l0.569,2.6
	l2.2,0.19l1.05-1.44l-1.34-1.83l-1.63-1.54l-3.439-0.38l-1.82-2.99l2.1-3.18l0.19-2.79l-1.43-3.56L219.88,154.47L219.88,154.47z"/>
<path id="mindoro" fill="#010101" d="M221.22,171.71l0.76,2.7l1.34,0.87l0.96-1.25l-1.529-2.12L221.22,171.71L221.22,171.71z"/>
<path id="hainan" fill="#010101" d="M188.329,151.67l-2.39,0.67l-1.72,2.12l1.43,2.79l2.101,0.19l2.39-2.12l0.57-2.79
	L188.329,151.67L188.329,151.67z"/>
<path id="taiwan" fill="#010101" d="M215.96,129.81l-3.54,2.7l-0.19,5.2l3.06,3.56l0.761-0.67L215.96,129.81L215.96,129.81z"/>
<path id="kyushu" fill="#010101" d="M231.729,97.92l-1.63,1.64l0.67,2.31l1.43,0.1l0.96,5.01l1.15,1.25l2.01-1.83l0.86-3.28
	l-2.49-3.56L231.729,97.92L231.729,97.92z"/>
<path id="shikoku" fill="#010101" d="M240.529,94.65l-2.77,2.6l-0.101,2.99l0.67,0.87l3.73-3.18l-0.29-3.18L240.529,94.65
	L240.529,94.65z"/>
<path id="honshu" fill="#010101" d="M236.699,88.48l-4.88,5.59l0.86,1.35l2.39,0.29l4.49-3.47l3.16-0.58l2.87,3.37l2.199-0.77
	l0.86-3.28l4.11-0.1l4.02-4.82l-2.1-8l-0.96-4.24l2.1-1.73l-4.78-7.22l-1.239,0.1l-2.58,2.89v2.41l1.149,1.35l0.38,6.36l-2.96,3.66
	l-1.72-1.06l-1.34,2.99l-0.29,2.79l1.05,1.64l-0.67,1.25l-2.2-1.83h-1.529l-1.341,0.77L236.699,88.48L236.699,88.48z"/>
<path id="hokkaido" fill="#010101" d="M244.93,44.94l-1.53,1.35l0.771,2.89l1.34,1.35l-0.101,4.43l-1.72,0.67l-1.34,2.99l3.92,5.39
	l2.58-0.87l0.479-1.35l-2.77-2.5l1.72-2.22l1.82,0.29l1.43,1.54l0.101-3.18l3.92-3.18l2.199-0.58l-1.819-3.08l-0.86-1.35l-1.43,0.96
	l-1.24,1.54l-2.68-0.58l-2.771-1.83L244.93,44.94L244.93,44.94z"/>
<path id="iturup" fill="#010101" d="M259.359,41.95l-2.68,3.76l0.189,1.83l1.341-0.58l3.149-3.95L259.359,41.95L259.359,41.95z"/>
<path id="urup" fill="#010101" d="M262.899,36.46l-0.96,2.6l0.1,1.73l1.631-1.06l1.529-3.08V35.5L262.899,36.46L262.899,36.46z"/>
<path id="paramushir" fill="#010101" d="M268.539,13.53l-1.239,1.54l0.1,2.41l1.15-0.1l1.909-3.37L268.539,13.53L268.539,13.53z"/>
<path id="onekotan" fill="#010101" d="M266.25,19.41v4.24l1.34,0.48l0.96-1.54v-3.27L266.25,19.41L266.25,19.41z"/>
<path id="sakhalin" fill="#010101" d="M227.14,4.09l-0.09,6.17l7.739,11.95l2.771,10.4l4.88,9.25l1.91,0.67l1.63-1.35l0.76-2.22
	l-6.979-7.61l0.189-3.95l1.53-0.67l0.38-2.31l-13.67-19.36L227.14,4.09L227.14,4.09z"/>
<path id="male" fill="#010101" d="M84.899,202.26l0.3,2.61l1.67,0.61l0.301-2.301L84.899,202.26L84.899,202.26z"/>
<path id="maldive" fill="#010101" d="M87.029,207.78L86.88,211l1.22,0.61l1.07-2.15L87.029,207.78L87.029,207.78z"/>
<path id="gan" fill="#010101" d="M87.34,214.07l-1.07,1.069l1.22,1.07l1.521-1.07L87.34,214.07L87.34,214.07z"/>
<path id="sri_lanka" fill="#010101" d="M109.039,189.55l0.25,2.72l0.25,1.98l-1.47,0.25l0.74,4.45l2.21,1.24l3.43-1.98l-0.979-4.69
	l0.25-1.729l-3.19-2.96L109.039,189.55L109.039,189.55z"/>
<path id="irian_jaya" fill="#010101" d="M260.43,220.84l-4.17,0.47l-2.681,1.96l1.11,2.24l4.54,0.84v0.841l-2.87,2.329l1.391,4.851
	l1.39,0.09l1.2-4.76h2.22l0.93,4.66l10.83,8.96l0.28,7l3.7,4.01l1.67-0.09l0.37-24.721l-6.29-4.38l-5.931,4.011l-2.13,1.31
	l-3.52-2.24l-0.09-7.09L260.43,220.84L260.43,220.84z"/>
<path id="china" fill="#010101" d="M98.899,51.57l-3.46,8.7l-4.77-0.25l-5.03,11.01l4.27,5.439l-8.8,12.15l-4.52-0.76l-3.021,3.8
	l0.75,2.28l3.521,0.25l1.76,4.05l3.52,0.76l10.811,13.93v7.09l5.28,3.29l5.779-1.01l7.29,4.3l8.8,2.53l4.271-0.51l4.78-0.51
	l10.05-6.58l3.27,0.51l1.25,2.97l2.771,0.83l3.77,5.57l-2.51,5.57l1.51,3.8l4.271,1.52l0.75,4.56l5.03,0.51l0.75-2.28l7.29-3.8
	l4.52,0.25l5.28,5.82l3.52-1.52l2.261,0.25l1.01,2.79l1.76,0.25l2.51-3.54l10.051-3.8l9.05-10.89l3.02-10.38l-0.25-6.84l-3.77-0.76
	l2.26-2.53l-0.5-4.05l-9.55-9.62v-4.81l2.76-3.54l2.76-1.27l0.25-2.79h-7.04l-1.26,3.8l-3.27-0.76l-4.021-4.3l2.51-6.58l3.521-3.8
	l3.27,0.25l-0.5,5.82l1.761,1.52l4.27-4.3l1.51-0.25l-0.5-3.29l4.021-4.81l3.02,0.25l1.761-5.57l2.06-1.09l0.21-3.47l-2-2.1
	l-0.17-5.48l3.85-0.25l-0.25-14.13l-2.699,1.62l-1.011,3.62L209.8,41l-13.07-7.35l-9.439-11.38l-9.58-0.1l-2.44,2.12l3.101,7.1
	l-1.08,6.66l-3.86,1.6l-2.17-0.17l-0.16,6.59l2.26,0.51l4.021-1.77l5.28,2.53v2.53l-3.771,0.25l-3.02,6.58l-2.761,0.25l-9.8,12.91
	l-10.3,4.56l-7.04,0.51l-4.77-3.29l-6.79,3.55l-7.29-2.28l-1.76-4.81l-12.311-0.76l-6.53-10.63h-2.76l-2.22-4.93L98.899,51.57z"/>
<path id="mongolia" fill="#010101" d="M102.3,51.67l5.819-7.72l6.99,3.23l4.75,1.27l5.82-5.34l-3.95-2.91l2.6-3.67l7.761,2.74
	l2.689,4.41l4.86,0.13l2.54-1.89l5.229-0.21l1.141,1.94l8.689,0.44l5.5-5.61l7.61,0.8l-0.44,7.64l3.33,0.76l4.09-1.86l4.33,2.14
	l-0.1,1.08l-3.14,0.09l-3.271,6.86l-2.54,0.25l-9.88,12.91l-10.09,4.45l-6.311,0.49l-5.239-3.38l-6.7,3.58l-6.601-2.05l-1.869-4.79
	l-12.5-0.88l-6.4-10.85l-3.11-0.2L102.3,51.67L102.3,51.67z"/>
<path id="north_korea" fill="#010101" d="M206.779,75.77l1.84,0.77l0.561,6.44l3.65,0.21l3.439-4.03l-1.189-1.06l0.14-4.32
	l3.16-3.82l-1.61-2.9l1.05-1.2l0.58-3l-1.83-0.83l-1.56,0.79l-1.93,5.86l-3.12-0.27l-3.61,4.26L206.779,75.77L206.779,75.77z"/>
<path id="south_korea" fill="#010101" d="M216.84,79.7l6.18,5.04l1.05,4.88l-0.21,2.62l-3.02,3.4l-2.601,0.14l-2.95-6.37
	l-1.119-3.04l1.189-0.92l-0.28-1.27l-1.47-0.66L216.84,79.7L216.84,79.7z"/>
<path id="tajikistan" fill="#010101" d="M58.689,93.34l4.11-5.1h1.55l0.54,1.14l-1.9,1.38v1.14l1.25,0.9l6.01,0.36l1.96-0.84
	L73.1,92.5l0.6,1.92l3.57,0.36l1.79,3.78l-0.54,1.14l-0.71,0.06l-0.71-1.44l-1.55-0.12l-2.681,0.36l-0.18,2.52l-2.68-0.18l0.12-3.18
	l-1.96-1.92l-2.98,2.46l0.06,1.62l-2.619,0.9h-1.551l0.12-5.58L58.689,93.34L58.689,93.34z"/>
<path id="kirgizstan" fill="#010101" d="M65.31,80.71L65,83.24l0.25,1.56l8.699,2.92l-7.64,3.08l-0.87-0.72l-1.65,1.06l0.08,0.58
	l0.881,0.4l5.359,0.14l2.72-0.82l3.49-4.4l4.37,0.76l5.27-7.3l-14.1-1.92l-1.95,4.73l-2.46-2.64L65.31,80.71L65.31,80.71z"/>
<path id="afghanistan" fill="#010101" d="M42.619,108.55l1.591,12.46l3.96,0.87l0.369,2.24l-2.84,2.37l5.29,4.27l10.28-3.7
	l0.82-4.38l6.47-4.04l2.479-9.36l1.851-1.99l-1.92-3.34l6.26-3.87l-0.8-1.12l-2.891,0.18l-0.26,2.66l-3.88-0.04l-0.07-3.55
	l-1.25-1.49l-2.1,1.91l0.06,1.75l-3.17,1.2l-5.85-0.37l-7.6,7.96L42.619,108.55L42.619,108.55z"/>
<path id="pakistan" fill="#010101" d="M51.63,131.34l2.6,3.86l-0.25,1.99l-3.46,1.37l-0.25,3.24h3.96l1.36-1.12h7.54l6.8,5.98
	l0.87-2.87h5.069l0.12-3.61L70.8,135.2l1.109-2.74l5.32-0.37l7.17-14.95l-3.96-3.11l-1.48-5.23l9.641-0.87l-5.69-8.1l-3.03-0.82
	l-1.239,1.5l-0.931,0.07l-5.689,3.61l1.859,3.12l-2.1,2.24l-2.6,9.59l-6.431,4.11l-0.869,4.49L51.63,131.34L51.63,131.34z"/>
<path id="india" fill="#010101" d="M99.479,194.51l4.58-2.24l2.72-9.84l-0.12-12.08l15.58-16.82v-3.99l3.21-1.25l-0.12-4.61
	l-3.46-6.73l1.98-3.61l4.33,3.99l5.56,0.25v2.24l-1.729,1.87l0.37,1l2.97,0.12l0.62,3.36h0.87l2.229-3.99l1.11-10.46l3.71-2.62
	l0.12-3.61l-1.48-2.87l-2.35-0.12l-9.2,6.08l0.58,3.91l-6.46-0.02l-2.28-2.79l-1.24,0.16l0.42,3.88l-13.97-1l-8.66-3.86l-0.46-4.75
	l-5.77-3.58l-0.07-7.37l-3.96-4.53l-9.1,0.87l0.989,3.96l4.46,3.61l-7.71,15.78l-5.159,0.39l-0.851,1.9l5.08,4.7l-0.25,4.75
	l-5.189-0.08l-0.561,2.36l4.311-0.19l0.12,1.87l-3.091,1.62l1.98,3.74l3.83,1.25l2.35-1.74l1.11-3.11l1.359-0.62l1.61,1.62
	l-0.49,3.99l-1.109,1.87l0.25,3.24L99.479,194.51L99.479,194.51z"/>
<path id="nepal" fill="#010101" d="M99.689,124.06l0.46,4.27l8.08,3.66l12.95,0.96l-0.49-3.13l-8.65-2.38l-7.34-4.37L99.689,124.06
	L99.689,124.06z"/>
<path id="bhutan" fill="#010101" d="M123.899,129.58l1.55,2.12l5.24,0.04l-0.53-2.9L123.899,129.58L123.899,129.58z"/>
<path id="bangladesh" fill="#010101" d="M124.069,134.61l-1.31,2.37l3.399,6.46l0.101,5.04l0.62,1.35l3.989,0.07l2.261-2.17
	l1.64,0.99l0.33,3.07l1.31-0.82l0.08-3.92l-1.1-0.13l-0.69-3.33l-2.779-0.1l-0.69-1.85l1.7-2.27l0.03-1.12h-4.94L124.069,134.61
	L124.069,134.61z"/>
<path id="burma" fill="#010101" d="M157.939,185.15l-2.77-4.44l2.01-2.82l-1.9-3.49l-1.79-0.34l-0.34-5.86l-2.68-5.19l-0.78,1.24
	l-1.79,3.04l-2.24,0.34l-1.12-1.47l-0.56-3.95l-1.68-3.16l-6.841-6.45l1.681-1.11l0.31-4.67l2.5-4.2l1.08-10.45l3.62-2.47l0.12-3.81
	l2.17,0.72l3.42,4.95l-2.54,5.44l1.71,4.27l4.23,1.66l0.77,4.65l5.68,0.88l-1.569,2.71l-7.16,2.82l-0.78,4.62l5.26,6.76l0.221,3.61
	l-1.23,1.24l0.11,1.13l3.92,5.75l0.11,5.97L157.939,185.15L157.939,185.15z"/>
<path id="thailand" fill="#010101" d="M158.529,151.97l3.24,4.17v5.07l1.12,0.56l5.149-2.48l1.011,0.34l6.149,7.1l-0.22,4.85
	l-2.01-0.34l-1.79-1.13l-1.34,0.11l-2.351,3.94l0.45,2.14l1.9,1.01l-0.11,2.37l-1.34,0.68l-4.59-3.16v-2.82l-1.9-0.11l-0.78,1.24
	l-0.399,12.62l2.97,5.42l5.26,5.07l-0.22,1.47l-2.8-0.109l-2.57-3.83h-2.689l-3.36-2.71l-1.01-2.82l1.45-2.37l0.5-2.14l1.58-2.8
	l-0.07-6.44l-3.86-5.58l-0.16-0.68l1.25-1.26l-0.29-4.43l-5.14-6.51l0.6-3.75L158.529,151.97L158.529,151.97z"/>
<path id="malaysia" fill="#010101" d="M161.21,196.95l2.01,4.51l0.45,5.86l2.689,4.17l6.49,3.939l2.46,0.23l-0.45-4.061l-2.13-5.18
	l-3.12-6.63l-0.26,1.16l-3.76-0.17l-2.7-3.88L161.21,196.95L161.21,196.95z"/>
<path id="cambodia" fill="#010101" d="M168.979,180.97l4.09,4.37l7.61-5.64l0.67-8.9l-3.93,2.71l-2.04-1.14l-2.771-0.37l-1.55-1.09
	l-0.75,0.04l-2.03,3.33l0.33,1.54l2.061,1.15l-0.25,3.13L168.979,180.97L168.979,180.97z"/>
<path id="laos" fill="#010101" d="M163.97,144.43l-2.42,1.23l-2.011,5.86l3.36,4.28l-0.56,4.73l0.56,0.23l5.59-2.71l7.5,8.38
	l-0.18,5.28l1.63,0.88l4.03-3.27l-0.33-2.59l-11.63-11.05l0.109-1.69l1.45-1.01l-1.01-2.82l-4.81-0.79L163.97,144.43L163.97,144.43z
	"/>
<path id="vietnam" fill="#010101" d="M173.56,185.95l1.19,1.87l0.22,2.14l3.13,0.34l3.8-5.069l3.58-1.011l1.9-5.18l-0.891-8.34
	l-3.689-5.07l-3.891-3.11l-4.95-8.5l3.551-5.94l-5.08-5.83l-4.07-0.18l-3.66,1.97l1.09,4.71l4.881,0.86l1.31,3.63l-1.72,1.12
	l0.109,0.9l11.45,11.2l0.45,3.29l-0.69,10.4L173.56,185.95L173.56,185.95z"/>
</svg>
